<svg xmlns="http://www.w3.org/2000/svg" viewBox="0 0 128 128"><defs><style>.cls-1{isolation:isolate;}.cls-2{mix-blend-mode:multiply;}.cls-3{fill:#e05951;}.cls-4{fill:#093357;}.cls-5{fill:none;stroke:#093357;stroke-linecap:round;stroke-linejoin:round;stroke-width:4px;}</style></defs><title>office-chair</title><g class="cls-1"><g id="icons" class="cls-2"><path class="cls-3" d="M78.9,60H51.1a4.041,4.041,0,0,1-4.084-4.379l3.321-40A4.064,4.064,0,0,1,54.423,12H75.577a4.064,4.064,0,0,1,4.084,3.621l3.321,40A4.041,4.041,0,0,1,78.9,60Z"/><circle class="cls-4" cx="65" cy="111" r="5"/><circle class="cls-4" cx="42" cy="111" r="5"/><circle class="cls-4" cx="88" cy="111" r="5"/><rect class="cls-4" x="63" y="82" width="4" height="30"/><rect class="cls-4" x="63" y="60" width="4" height="10"/><path class="cls-5" d="M65,99c-20,0-23,5-23,12"/><path class="cls-5" d="M65,99c20,0,23,5,23,12"/><path class="cls-5" d="M89,74V62a4,4,0,0,1,4-4h1"/><path class="cls-5" d="M41,74V62a4,4,0,0,0-4-4H36"/><path class="cls-3" d="M90,70H40a4,4,0,0,0-4,4h0a4,4,0,0,0,4,4H53a2,2,0,0,1,2,2h0a2,2,0,0,0,2,2H73a2,2,0,0,0,2-2h0a2,2,0,0,1,2-2H90a4,4,0,0,0,4-4h0A4,4,0,0,0,90,70Z"/></g></g></svg>